# xmcd
#
# Track frame offsets:
#	182
#	9307
#	19250
#	34067
#	44907
#	55982
#	66732
#	80582
#	91987
#	103452
#	116067
#	127005
#	142500
#	157497
#	168475
#	182872
#	194575
#	209865
#	219712
#	231425
#	244162
#	258195
#	281007
#	292860
#	304187
#
# Disc length: 4216 seconds
#
# Revision: 2
# Processed by: cddbd v1.5.1PL0 Copyright (c) Steve Scherf et al.
# Submitted via: EasyCDDAExtractor 8.2.1.1
#
DISCID=92107619
DTITLE=Various Artist - When Your Lover Has Gone
DYEAR=1900
DGENRE=Blues
TTITLE0=Bille Holiday - When Your Lover Has Gone
TTITLE1=John Lee Hooker - Dimples
TTITLE2=Muddy WAters - Baby Please Don't Go
TTITLE3=Howlin' Wolf - Who's Been Talkin'
TTITLE4=B.B. King - Catfish Blues
TTITLE5=Billie Holiday - Aint Nobody's Business
TTITLE6=Elmore James - Hand In Hand
TTITLE7=Sonny Boy Williamson - Born Blind
TTITLE8=John Lee Hooker - Boogie Chillum
TTITLE9=Muddy Waters - Trainfare Blues
TTITLE10=Howlin' Wolf - Wang Dang Doodle
TTITLE11=Billie Holiday - Easy To Remember
TTITLE12=B.B. King - B.B. Boogie
TTITLE13=Elmore James - Coming Home
TTITLE14=Leadbelly - Poor Howard Green Corn
TTITLE15=Muddy Waters - Settin' Here Drinkin'
TTITLE16=John Lee Hooker - Tupelo
TTITLE17=Howlin' Wolf - Down In The Bottom
TTITLE18=Little Walter - My Babe
TTITLE19=Billie Holiday - Don't Explain
TTITLE20=Sonny Boy Williamson - Don't Lose Your Eye
TTITLE21=B.B. King - Everyday I Have The Blues
TTITLE22=Muddy Waters - You Gonna Miss Me
TTITLE23=Elmore James - Look On Yonder Wall
TTITLE24=John Lee Hooker - Drug Store Woman
EXTD=
EXTT0=
EXTT1=
EXTT2=
EXTT3=
EXTT4=
EXTT5=
EXTT6=
EXTT7=
EXTT8=
EXTT9=
EXTT10=
EXTT11=
EXTT12=
EXTT13=
EXTT14=
EXTT15=
EXTT16=
EXTT17=
EXTT18=
EXTT19=
EXTT20=
EXTT21=
EXTT22=
EXTT23=
EXTT24=
PLAYORDER=
